<svg xmlns="http://www.w3.org/2000/svg" width="512" height="512" viewBox="0 0 512 512" role="img" aria-label="fragcap">
  <title>fragcap</title>
  <g class="capture-reticle"><path fill="#FFFFFF" d="M72 154V72h82v22H94v60z"/><path fill="#FFFFFF" d="M358 72h82v82h-22V94h-60z"/><path fill="#FFFFFF" d="M72 358h22v60h60v22H72z"/><path fill="#FFFFFF" d="M418 358h22v82h-82v-22h60z"/></g><g class="packet-f"><path fill="#FFFFFF" d="M156 134l16-16h34v272h-50z"/><path fill="#FFFFFF" d="M188 118h150l14 12-14 12H188z"/><path fill="#FFFFFF" d="M188 220h150l14 12-14 12H188z"/><path fill="#FFFFFF" d="M188 322h92l14 12-14 12h-92z"/></g><g class="captured-terminals"><path fill="#FFFFFF" d="M370 118h34v34h-34z"/><path fill="#FFFFFF" d="M370 220h34v34h-34z"/><path fill="#FFFFFF" d="M312 322h34v34h-34z"/></g>
</svg>
