<svg xmlns="http://www.w3.org/2000/svg" width="512" height="512" viewBox="0 0 512 512">
  <title>fragcap logo</title>

  <g id="fragcap-mark">
  <g id="capture-reticle" fill="#050708">
    <path d="M72 154V72h82v22H94v60z"/>
    <path d="M358 72h82v82h-22V94h-60z"/>
    <path d="M72 358h22v60h60v22H72z"/>
    <path d="M418 358h22v82h-82v-22h60z"/>
  </g>
  <g id="packet-f" fill="#050708">
    <path d="M156 134l16-16h34v272h-50z"/>
    <path d="M188 118h150l14 12-14 12H188z"/>
    <path d="M188 220h150l14 12-14 12H188z"/>
    <path d="M188 322h92l14 12-14 12h-92z"/>
  </g>
  <g id="captured-terminals" fill="#050708">
    <rect x="370" y="118" width="34" height="34"/>
    <rect x="370" y="220" width="34" height="34"/>
    <rect x="312" y="322" width="34" height="34"/>
  </g>
</g>
</svg>
